{
	"asset":{
		"generator":"Khronos glTF Blender I/O v5.1.20",
		"version":"2.0"
	},
	"extensionsUsed":[
		"KHR_materials_emissive_strength"
	],
	"scene":0,
	"scenes":[
		{
			"name":"Scene",
			"nodes":[
				22,
				23,
				24,
				25,
				26,
				27,
				28
			]
		}
	],
	"nodes":[
		{
			"name":"Head",
			"rotation":[
				0,
				-1.1920927533992653e-07,
				0,
				1
			],
			"translation":[
				0,
				1.1340276002883911,
				0
			]
		},
		{
			"name":"L.forearm",
			"rotation":[
				0.03752197325229645,
				-1.61731932166731e-05,
				0.0020439382642507553,
				0.9992937445640564
			],
			"scale":[
				0.9999999403953552,
				1.0000001192092896,
				1
			],
			"translation":[
				-1.2759276302176659e-08,
				0.4952339231967926,
				-4.256435204297304e-09
			]
		},
		{
			"children":[
				1
			],
			"name":"L.bicep",
			"rotation":[
				-0.022700218483805656,
				-0.0011467216536402702,
				0.050429802387952805,
				0.9984689354896545
			],
			"translation":[
				1.862645504502325e-08,
				0.41810810565948486,
				-1.4210854715202004e-14
			]
		},
		{
			"children":[
				2
			],
			"name":"L.shoulder",
			"rotation":[
				2.971737274037878e-07,
				1.1826539747517018e-07,
				-0.740434467792511,
				0.6721286177635193
			],
			"scale":[
				0.9999999403953552,
				0.9999999403953552,
				1
			],
			"translation":[
				0,
				1.1340276002883911,
				0
			]
		},
		{
			"name":"R.forearm",
			"rotation":[
				0.03752197325229645,
				1.61731932166731e-05,
				-0.0020439382642507553,
				0.9992937445640564
			],
			"scale":[
				0.9999999403953552,
				1.0000001192092896,
				1
			],
			"translation":[
				1.2759276302176659e-08,
				0.4952339231967926,
				-4.256435204297304e-09
			]
		},
		{
			"children":[
				4
			],
			"name":"R.bicep",
			"rotation":[
				-0.022700218483805656,
				0.0011467216536402702,
				-0.050429802387952805,
				0.9984689354896545
			],
			"translation":[
				-1.862645504502325e-08,
				0.41810810565948486,
				-2.708944180085382e-14
			]
		},
		{
			"children":[
				5
			],
			"name":"R.shoulder",
			"rotation":[
				1.2064043630743981e-07,
				-2.7851328354699945e-07,
				0.740434467792511,
				0.6721286177635193
			],
			"scale":[
				0.9999999403953552,
				0.9999999403953552,
				1
			],
			"translation":[
				0,
				1.1340276002883911,
				0
			]
		},
		{
			"children":[
				0,
				3,
				6
			],
			"name":"Torso",
			"rotation":[
				0,
				1.1920927533992653e-07,
				0,
				1
			]
		},
		{
			"name":"L.shin",
			"rotation":[
				-0.012534935027360916,
				-1.6580424926360138e-05,
				-0.06816666573286057,
				0.9975951910018921
			],
			"scale":[
				1,
				1,
				0.9999999403953552
			],
			"translation":[
				6.155460141599178e-09,
				0.6061371564865112,
				-3.0138693318804144e-08
			]
		},
		{
			"children":[
				8
			],
			"name":"L.thigh",
			"rotation":[
				-0.4699603021144867,
				0.015727289021015167,
				0.02951832488179207,
				0.8820536732673645
			],
			"scale":[
				0.9999999403953552,
				0.9999998211860657,
				0.9999998211860657
			],
			"translation":[
				8.881784197001252e-16,
				0.36753028631210327,
				-4.470348358154297e-08
			]
		},
		{
			"children":[
				9
			],
			"name":"L.hip",
			"rotation":[
				-0.6253697872161865,
				-0.33001908659935,
				-0.6253697276115417,
				0.33001914620399475
			]
		},
		{
			"name":"R.shin",
			"rotation":[
				-0.012534935027360916,
				1.6580424926360138e-05,
				0.06816666573286057,
				0.9975951910018921
			],
			"scale":[
				1,
				1,
				0.9999999403953552
			],
			"translation":[
				-6.155460141599178e-09,
				0.6061371564865112,
				-3.0138693318804144e-08
			]
		},
		{
			"children":[
				11
			],
			"name":"R.thigh",
			"rotation":[
				-0.4699603021144867,
				-0.015727289021015167,
				-0.02951832488179207,
				0.8820536732673645
			],
			"scale":[
				0.9999999403953552,
				0.9999998211860657,
				0.9999998211860657
			],
			"translation":[
				-8.881784197001252e-16,
				0.36753028631210327,
				-4.470348358154297e-08
			]
		},
		{
			"children":[
				12
			],
			"name":"R.hip",
			"rotation":[
				-0.6253697872161865,
				0.33001908659935,
				0.6253697276115417,
				0.33001914620399475
			]
		},
		{
			"mesh":0,
			"name":"ear",
			"skin":0
		},
		{
			"mesh":1,
			"name":"glasses",
			"skin":0
		},
		{
			"mesh":2,
			"name":"hair",
			"skin":0
		},
		{
			"mesh":3,
			"name":"Head",
			"skin":0
		},
		{
			"mesh":4,
			"name":"legs",
			"skin":0
		},
		{
			"mesh":5,
			"name":"nose",
			"skin":0
		},
		{
			"mesh":6,
			"name":"pants",
			"skin":0
		},
		{
			"mesh":7,
			"name":"torso",
			"skin":0
		},
		{
			"children":[
				14,
				15,
				16,
				17,
				18,
				19,
				20,
				21,
				7,
				10,
				13
			],
			"name":"Armature",
			"translation":[
				0,
				-0.7034980654716492,
				0
			]
		},
		{
			"mesh":8,
			"name":"Plane",
			"rotation":[
				0.5279294848442078,
				0,
				0,
				0.8492882251739502
			],
			"translation":[
				0.3291807174682617,
				3.221327781677246,
				3.8352303504943848
			]
		},
		{
			"name":"front",
			"rotation":[
				0.70710688829422,
				0,
				0,
				0.7071066498756409
			],
			"scale":[
				2.5,
				2.5,
				2.5
			]
		},
		{
			"name":"side",
			"rotation":[
				0.5,
				0.5,
				-0.5,
				0.5
			],
			"scale":[
				2.5,
				2.5,
				2.5
			]
		},
		{
			"name":"top",
			"rotation":[
				0,
				-1,
				0,
				4.371139183945161e-08
			],
			"scale":[
				2.5,
				2.5,
				2.5
			],
			"translation":[
				0,
				0,
				-0.19658447802066803
			]
		},
		{
			"name":"Empty",
			"rotation":[
				-1,
				0,
				0,
				4.371139183945161e-08
			],
			"scale":[
				2.5,
				2.5,
				2.5
			],
			"translation":[
				0,
				-2.2147209644317627,
				0
			]
		},
		{
			"name":"Empty.001",
			"rotation":[
				0.7071069478988647,
				0,
				0,
				0.7071066498756409
			],
			"scale":[
				0.6201663613319397,
				0.6201663613319397,
				0.6201663613319397
			],
			"translation":[
				0.002051122486591339,
				1.5120644569396973,
				0.15539461374282837
			]
		}
	],
	"animations":[
		{
			"channels":[
				{
					"sampler":0,
					"target":{
						"node":7,
						"path":"translation"
					}
				},
				{
					"sampler":1,
					"target":{
						"node":7,
						"path":"rotation"
					}
				},
				{
					"sampler":2,
					"target":{
						"node":7,
						"path":"scale"
					}
				},
				{
					"sampler":3,
					"target":{
						"node":0,
						"path":"translation"
					}
				},
				{
					"sampler":4,
					"target":{
						"node":0,
						"path":"rotation"
					}
				},
				{
					"sampler":5,
					"target":{
						"node":0,
						"path":"scale"
					}
				},
				{
					"sampler":6,
					"target":{
						"node":3,
						"path":"translation"
					}
				},
				{
					"sampler":7,
					"target":{
						"node":3,
						"path":"rotation"
					}
				},
				{
					"sampler":8,
					"target":{
						"node":3,
						"path":"scale"
					}
				},
				{
					"sampler":9,
					"target":{
						"node":2,
						"path":"translation"
					}
				},
				{
					"sampler":10,
					"target":{
						"node":2,
						"path":"rotation"
					}
				},
				{
					"sampler":11,
					"target":{
						"node":2,
						"path":"scale"
					}
				},
				{
					"sampler":12,
					"target":{
						"node":1,
						"path":"translation"
					}
				},
				{
					"sampler":13,
					"target":{
						"node":1,
						"path":"rotation"
					}
				},
				{
					"sampler":14,
					"target":{
						"node":1,
						"path":"scale"
					}
				},
				{
					"sampler":15,
					"target":{
						"node":6,
						"path":"translation"
					}
				},
				{
					"sampler":16,
					"target":{
						"node":6,
						"path":"rotation"
					}
				},
				{
					"sampler":17,
					"target":{
						"node":6,
						"path":"scale"
					}
				},
				{
					"sampler":18,
					"target":{
						"node":5,
						"path":"translation"
					}
				},
				{
					"sampler":19,
					"target":{
						"node":5,
						"path":"rotation"
					}
				},
				{
					"sampler":20,
					"target":{
						"node":5,
						"path":"scale"
					}
				},
				{
					"sampler":21,
					"target":{
						"node":4,
						"path":"translation"
					}
				},
				{
					"sampler":22,
					"target":{
						"node":4,
						"path":"rotation"
					}
				},
				{
					"sampler":23,
					"target":{
						"node":4,
						"path":"scale"
					}
				},
				{
					"sampler":24,
					"target":{
						"node":10,
						"path":"translation"
					}
				},
				{
					"sampler":25,
					"target":{
						"node":10,
						"path":"rotation"
					}
				},
				{
					"sampler":26,
					"target":{
						"node":10,
						"path":"scale"
					}
				},
				{
					"sampler":27,
					"target":{
						"node":9,
						"path":"translation"
					}
				},
				{
					"sampler":28,
					"target":{
						"node":9,
						"path":"rotation"
					}
				},
				{
					"sampler":29,
					"target":{
						"node":9,
						"path":"scale"
					}
				},
				{
					"sampler":30,
					"target":{
						"node":8,
						"path":"translation"
					}
				},
				{
					"sampler":31,
					"target":{
						"node":8,
						"path":"rotation"
					}
				},
				{
					"sampler":32,
					"target":{
						"node":8,
						"path":"scale"
					}
				},
				{
					"sampler":33,
					"target":{
						"node":13,
						"path":"translation"
					}
				},
				{
					"sampler":34,
					"target":{
						"node":13,
						"path":"rotation"
					}
				},
				{
					"sampler":35,
					"target":{
						"node":13,
						"path":"scale"
					}
				},
				{
					"sampler":36,
					"target":{
						"node":12,
						"path":"translation"
					}
				},
				{
					"sampler":37,
					"target":{
						"node":12,
						"path":"rotation"
					}
				},
				{
					"sampler":38,
					"target":{
						"node":12,
						"path":"scale"
					}
				},
				{
					"sampler":39,
					"target":{
						"node":11,
						"path":"translation"
					}
				},
				{
					"sampler":40,
					"target":{
						"node":11,
						"path":"rotation"
					}
				},
				{
					"sampler":41,
					"target":{
						"node":11,
						"path":"scale"
					}
				},
				{
					"sampler":0,
					"target":{
						"node":7,
						"path":"translation"
					}
				},
				{
					"sampler":1,
					"target":{
						"node":7,
						"path":"rotation"
					}
				},
				{
					"sampler":2,
					"target":{
						"node":7,
						"path":"scale"
					}
				},
				{
					"sampler":3,
					"target":{
						"node":0,
						"path":"translation"
					}
				},
				{
					"sampler":4,
					"target":{
						"node":0,
						"path":"rotation"
					}
				},
				{
					"sampler":5,
					"target":{
						"node":0,
						"path":"scale"
					}
				},
				{
					"sampler":6,
					"target":{
						"node":3,
						"path":"translation"
					}
				},
				{
					"sampler":7,
					"target":{
						"node":3,
						"path":"rotation"
					}
				},
				{
					"sampler":8,
					"target":{
						"node":3,
						"path":"scale"
					}
				},
				{
					"sampler":9,
					"target":{
						"node":2,
						"path":"translation"
					}
				},
				{
					"sampler":10,
					"target":{
						"node":2,
						"path":"rotation"
					}
				},
				{
					"sampler":11,
					"target":{
						"node":2,
						"path":"scale"
					}
				},
				{
					"sampler":12,
					"target":{
						"node":1,
						"path":"translation"
					}
				},
				{
					"sampler":13,
					"target":{
						"node":1,
						"path":"rotation"
					}
				},
				{
					"sampler":14,
					"target":{
						"node":1,
						"path":"scale"
					}
				},
				{
					"sampler":15,
					"target":{
						"node":6,
						"path":"translation"
					}
				},
				{
					"sampler":16,
					"target":{
						"node":6,
						"path":"rotation"
					}
				},
				{
					"sampler":17,
					"target":{
						"node":6,
						"path":"scale"
					}
				},
				{
					"sampler":18,
					"target":{
						"node":5,
						"path":"translation"
					}
				},
				{
					"sampler":19,
					"target":{
						"node":5,
						"path":"rotation"
					}
				},
				{
					"sampler":20,
					"target":{
						"node":5,
						"path":"scale"
					}
				},
				{
					"sampler":21,
					"target":{
						"node":4,
						"path":"translation"
					}
				},
				{
					"sampler":22,
					"target":{
						"node":4,
						"path":"rotation"
					}
				},
				{
					"sampler":23,
					"target":{
						"node":4,
						"path":"scale"
					}
				},
				{
					"sampler":24,
					"target":{
						"node":10,
						"path":"translation"
					}
				},
				{
					"sampler":25,
					"target":{
						"node":10,
						"path":"rotation"
					}
				},
				{
					"sampler":26,
					"target":{
						"node":10,
						"path":"scale"
					}
				},
				{
					"sampler":27,
					"target":{
						"node":9,
						"path":"translation"
					}
				},
				{
					"sampler":28,
					"target":{
						"node":9,
						"path":"rotation"
					}
				},
				{
					"sampler":29,
					"target":{
						"node":9,
						"path":"scale"
					}
				},
				{
					"sampler":30,
					"target":{
						"node":8,
						"path":"translation"
					}
				},
				{
					"sampler":31,
					"target":{
						"node":8,
						"path":"rotation"
					}
				},
				{
					"sampler":32,
					"target":{
						"node":8,
						"path":"scale"
					}
				},
				{
					"sampler":33,
					"target":{
						"node":13,
						"path":"translation"
					}
				},
				{
					"sampler":34,
					"target":{
						"node":13,
						"path":"rotation"
					}
				},
				{
					"sampler":35,
					"target":{
						"node":13,
						"path":"scale"
					}
				},
				{
					"sampler":36,
					"target":{
						"node":12,
						"path":"translation"
					}
				},
				{
					"sampler":37,
					"target":{
						"node":12,
						"path":"rotation"
					}
				},
				{
					"sampler":38,
					"target":{
						"node":12,
						"path":"scale"
					}
				},
				{
					"sampler":39,
					"target":{
						"node":11,
						"path":"translation"
					}
				},
				{
					"sampler":40,
					"target":{
						"node":11,
						"path":"rotation"
					}
				},
				{
					"sampler":41,
					"target":{
						"node":11,
						"path":"scale"
					}
				},
				{
					"sampler":0,
					"target":{
						"node":7,
						"path":"translation"
					}
				},
				{
					"sampler":1,
					"target":{
						"node":7,
						"path":"rotation"
					}
				},
				{
					"sampler":2,
					"target":{
						"node":7,
						"path":"scale"
					}
				},
				{
					"sampler":3,
					"target":{
						"node":0,
						"path":"translation"
					}
				},
				{
					"sampler":4,
					"target":{
						"node":0,
						"path":"rotation"
					}
				},
				{
					"sampler":5,
					"target":{
						"node":0,
						"path":"scale"
					}
				},
				{
					"sampler":6,
					"target":{
						"node":3,
						"path":"translation"
					}
				},
				{
					"sampler":7,
					"target":{
						"node":3,
						"path":"rotation"
					}
				},
				{
					"sampler":8,
					"target":{
						"node":3,
						"path":"scale"
					}
				},
				{
					"sampler":9,
					"target":{
						"node":2,
						"path":"translation"
					}
				},
				{
					"sampler":10,
					"target":{
						"node":2,
						"path":"rotation"
					}
				},
				{
					"sampler":11,
					"target":{
						"node":2,
						"path":"scale"
					}
				},
				{
					"sampler":12,
					"target":{
						"node":1,
						"path":"translation"
					}
				},
				{
					"sampler":13,
					"target":{
						"node":1,
						"path":"rotation"
					}
				},
				{
					"sampler":14,
					"target":{
						"node":1,
						"path":"scale"
					}
				},
				{
					"sampler":15,
					"target":{
						"node":6,
						"path":"translation"
					}
				},
				{
					"sampler":16,
					"target":{
						"node":6,
						"path":"rotation"
					}
				},
				{
					"sampler":17,
					"target":{
						"node":6,
						"path":"scale"
					}
				},
				{
					"sampler":18,
					"target":{
						"node":5,
						"path":"translation"
					}
				},
				{
					"sampler":19,
					"target":{
						"node":5,
						"path":"rotation"
					}
				},
				{
					"sampler":20,
					"target":{
						"node":5,
						"path":"scale"
					}
				},
				{
					"sampler":21,
					"target":{
						"node":4,
						"path":"translation"
					}
				},
				{
					"sampler":22,
					"target":{
						"node":4,
						"path":"rotation"
					}
				},
				{
					"sampler":23,
					"target":{
						"node":4,
						"path":"scale"
					}
				},
				{
					"sampler":24,
					"target":{
						"node":10,
						"path":"translation"
					}
				},
				{
					"sampler":25,
					"target":{
						"node":10,
						"path":"rotation"
					}
				},
				{
					"sampler":26,
					"target":{
						"node":10,
						"path":"scale"
					}
				},
				{
					"sampler":27,
					"target":{
						"node":9,
						"path":"translation"
					}
				},
				{
					"sampler":28,
					"target":{
						"node":9,
						"path":"rotation"
					}
				},
				{
					"sampler":29,
					"target":{
						"node":9,
						"path":"scale"
					}
				},
				{
					"sampler":30,
					"target":{
						"node":8,
						"path":"translation"
					}
				},
				{
					"sampler":31,
					"target":{
						"node":8,
						"path":"rotation"
					}
				},
				{
					"sampler":32,
					"target":{
						"node":8,
						"path":"scale"
					}
				},
				{
					"sampler":33,
					"target":{
						"node":13,
						"path":"translation"
					}
				},
				{
					"sampler":34,
					"target":{
						"node":13,
						"path":"rotation"
					}
				},
				{
					"sampler":35,
					"target":{
						"node":13,
						"path":"scale"
					}
				},
				{
					"sampler":36,
					"target":{
						"node":12,
						"path":"translation"
					}
				},
				{
					"sampler":37,
					"target":{
						"node":12,
						"path":"rotation"
					}
				},
				{
					"sampler":38,
					"target":{
						"node":12,
						"path":"scale"
					}
				},
				{
					"sampler":39,
					"target":{
						"node":11,
						"path":"translation"
					}
				},
				{
					"sampler":40,
					"target":{
						"node":11,
						"path":"rotation"
					}
				},
				{
					"sampler":41,
					"target":{
						"node":11,
						"path":"scale"
					}
				}
			],
			"name":"IdleAnim",
			"samplers":[
				{
					"input":83,
					"interpolation":"STEP",
					"output":84
				},
				{
					"input":85,
					"interpolation":"LINEAR",
					"output":86
				},
				{
					"input":83,
					"interpolation":"STEP",
					"output":87
				},
				{
					"input":83,
					"interpolation":"STEP",
					"output":88
				},
				{
					"input":85,
					"interpolation":"LINEAR",
					"output":89
				},
				{
					"input":83,
					"interpolation":"STEP",
					"output":90
				},
				{
					"input":83,
					"interpolation":"STEP",
					"output":91
				},
				{
					"input":83,
					"interpolation":"STEP",
					"output":92
				},
				{
					"input":83,
					"interpolation":"STEP",
					"output":93
				},
				{
					"input":83,
					"interpolation":"STEP",
					"output":94
				},
				{
					"input":85,
					"interpolation":"LINEAR",
					"output":95
				},
				{
					"input":83,
					"interpolation":"STEP",
					"output":96
				},
				{
					"input":83,
					"interpolation":"STEP",
					"output":97
				},
				{
					"input":83,
					"interpolation":"STEP",
					"output":98
				},
				{
					"input":83,
					"interpolation":"STEP",
					"output":99
				},
				{
					"input":83,
					"interpolation":"STEP",
					"output":100
				},
				{
					"input":83,
					"interpolation":"STEP",
					"output":101
				},
				{
					"input":83,
					"interpolation":"STEP",
					"output":93
				},
				{
					"input":83,
					"interpolation":"STEP",
					"output":102
				},
				{
					"input":85,
					"interpolation":"LINEAR",
					"output":103
				},
				{
					"input":83,
					"interpolation":"STEP",
					"output":90
				},
				{
					"input":83,
					"interpolation":"STEP",
					"output":104
				},
				{
					"input":83,
					"interpolation":"STEP",
					"output":105
				},
				{
					"input":83,
					"interpolation":"STEP",
					"output":106
				},
				{
					"input":83,
					"interpolation":"STEP",
					"output":84
				},
				{
					"input":83,
					"interpolation":"STEP",
					"output":107
				},
				{
					"input":83,
					"interpolation":"STEP",
					"output":96
				},
				{
					"input":83,
					"interpolation":"STEP",
					"output":108
				},
				{
					"input":83,
					"interpolation":"STEP",
					"output":109
				},
				{
					"input":83,
					"interpolation":"STEP",
					"output":110
				},
				{
					"input":83,
					"interpolation":"STEP",
					"output":111
				},
				{
					"input":83,
					"interpolation":"STEP",
					"output":112
				},
				{
					"input":83,
					"interpolation":"STEP",
					"output":113
				},
				{
					"input":83,
					"interpolation":"STEP",
					"output":84
				},
				{
					"input":83,
					"interpolation":"STEP",
					"output":114
				},
				{
					"input":83,
					"interpolation":"STEP",
					"output":96
				},
				{
					"input":83,
					"interpolation":"STEP",
					"output":115
				},
				{
					"input":83,
					"interpolation":"STEP",
					"output":116
				},
				{
					"input":83,
					"interpolation":"STEP",
					"output":110
				},
				{
					"input":83,
					"interpolation":"STEP",
					"output":117
				},
				{
					"input":83,
					"interpolation":"STEP",
					"output":118
				},
				{
					"input":83,
					"interpolation":"STEP",
					"output":113
				}
			]
		},
		{
			"channels":[
				{
					"sampler":0,
					"target":{
						"node":7,
						"path":"translation"
					}
				},
				{
					"sampler":1,
					"target":{
						"node":7,
						"path":"rotation"
					}
				},
				{
					"sampler":2,
					"target":{
						"node":7,
						"path":"scale"
					}
				},
				{
					"sampler":3,
					"target":{
						"node":0,
						"path":"translation"
					}
				},
				{
					"sampler":4,
					"target":{
						"node":0,
						"path":"rotation"
					}
				},
				{
					"sampler":5,
					"target":{
						"node":0,
						"path":"scale"
					}
				},
				{
					"sampler":6,
					"target":{
						"node":3,
						"path":"translation"
					}
				},
				{
					"sampler":7,
					"target":{
						"node":3,
						"path":"rotation"
					}
				},
				{
					"sampler":8,
					"target":{
						"node":3,
						"path":"scale"
					}
				},
				{
					"sampler":9,
					"target":{
						"node":2,
						"path":"translation"
					}
				},
				{
					"sampler":10,
					"target":{
						"node":2,
						"path":"rotation"
					}
				},
				{
					"sampler":11,
					"target":{
						"node":2,
						"path":"scale"
					}
				},
				{
					"sampler":12,
					"target":{
						"node":1,
						"path":"translation"
					}
				},
				{
					"sampler":13,
					"target":{
						"node":1,
						"path":"rotation"
					}
				},
				{
					"sampler":14,
					"target":{
						"node":1,
						"path":"scale"
					}
				},
				{
					"sampler":15,
					"target":{
						"node":6,
						"path":"translation"
					}
				},
				{
					"sampler":16,
					"target":{
						"node":6,
						"path":"rotation"
					}
				},
				{
					"sampler":17,
					"target":{
						"node":6,
						"path":"scale"
					}
				},
				{
					"sampler":18,
					"target":{
						"node":5,
						"path":"translation"
					}
				},
				{
					"sampler":19,
					"target":{
						"node":5,
						"path":"rotation"
					}
				},
				{
					"sampler":20,
					"target":{
						"node":5,
						"path":"scale"
					}
				},
				{
					"sampler":21,
					"target":{
						"node":4,
						"path":"translation"
					}
				},
				{
					"sampler":22,
					"target":{
						"node":4,
						"path":"rotation"
					}
				},
				{
					"sampler":23,
					"target":{
						"node":4,
						"path":"scale"
					}
				},
				{
					"sampler":24,
					"target":{
						"node":10,
						"path":"translation"
					}
				},
				{
					"sampler":25,
					"target":{
						"node":10,
						"path":"rotation"
					}
				},
				{
					"sampler":26,
					"target":{
						"node":10,
						"path":"scale"
					}
				},
				{
					"sampler":27,
					"target":{
						"node":9,
						"path":"translation"
					}
				},
				{
					"sampler":28,
					"target":{
						"node":9,
						"path":"rotation"
					}
				},
				{
					"sampler":29,
					"target":{
						"node":9,
						"path":"scale"
					}
				},
				{
					"sampler":30,
					"target":{
						"node":8,
						"path":"translation"
					}
				},
				{
					"sampler":31,
					"target":{
						"node":8,
						"path":"rotation"
					}
				},
				{
					"sampler":32,
					"target":{
						"node":8,
						"path":"scale"
					}
				},
				{
					"sampler":33,
					"target":{
						"node":13,
						"path":"translation"
					}
				},
				{
					"sampler":34,
					"target":{
						"node":13,
						"path":"rotation"
					}
				},
				{
					"sampler":35,
					"target":{
						"node":13,
						"path":"scale"
					}
				},
				{
					"sampler":36,
					"target":{
						"node":12,
						"path":"translation"
					}
				},
				{
					"sampler":37,
					"target":{
						"node":12,
						"path":"rotation"
					}
				},
				{
					"sampler":38,
					"target":{
						"node":12,
						"path":"scale"
					}
				},
				{
					"sampler":39,
					"target":{
						"node":11,
						"path":"translation"
					}
				},
				{
					"sampler":40,
					"target":{
						"node":11,
						"path":"rotation"
					}
				},
				{
					"sampler":41,
					"target":{
						"node":11,
						"path":"scale"
					}
				}
			],
			"name":"IdleStill",
			"samplers":[
				{
					"input":119,
					"interpolation":"LINEAR",
					"output":120
				},
				{
					"input":119,
					"interpolation":"LINEAR",
					"output":121
				},
				{
					"input":119,
					"interpolation":"LINEAR",
					"output":122
				},
				{
					"input":119,
					"interpolation":"LINEAR",
					"output":123
				},
				{
					"input":119,
					"interpolation":"LINEAR",
					"output":124
				},
				{
					"input":119,
					"interpolation":"LINEAR",
					"output":122
				},
				{
					"input":119,
					"interpolation":"LINEAR",
					"output":125
				},
				{
					"input":119,
					"interpolation":"LINEAR",
					"output":126
				},
				{
					"input":119,
					"interpolation":"LINEAR",
					"output":127
				},
				{
					"input":119,
					"interpolation":"LINEAR",
					"output":128
				},
				{
					"input":119,
					"interpolation":"LINEAR",
					"output":129
				},
				{
					"input":119,
					"interpolation":"LINEAR",
					"output":130
				},
				{
					"input":119,
					"interpolation":"LINEAR",
					"output":131
				},
				{
					"input":119,
					"interpolation":"LINEAR",
					"output":132
				},
				{
					"input":119,
					"interpolation":"LINEAR",
					"output":133
				},
				{
					"input":119,
					"interpolation":"LINEAR",
					"output":134
				},
				{
					"input":119,
					"interpolation":"LINEAR",
					"output":135
				},
				{
					"input":119,
					"interpolation":"LINEAR",
					"output":127
				},
				{
					"input":119,
					"interpolation":"LINEAR",
					"output":136
				},
				{
					"input":119,
					"interpolation":"LINEAR",
					"output":137
				},
				{
					"input":119,
					"interpolation":"LINEAR",
					"output":138
				},
				{
					"input":119,
					"interpolation":"LINEAR",
					"output":139
				},
				{
					"input":119,
					"interpolation":"LINEAR",
					"output":140
				},
				{
					"input":119,
					"interpolation":"LINEAR",
					"output":141
				},
				{
					"input":119,
					"interpolation":"LINEAR",
					"output":120
				},
				{
					"input":119,
					"interpolation":"LINEAR",
					"output":142
				},
				{
					"input":119,
					"interpolation":"LINEAR",
					"output":122
				},
				{
					"input":119,
					"interpolation":"LINEAR",
					"output":143
				},
				{
					"input":119,
					"interpolation":"LINEAR",
					"output":144
				},
				{
					"input":119,
					"interpolation":"LINEAR",
					"output":145
				},
				{
					"input":119,
					"interpolation":"LINEAR",
					"output":146
				},
				{
					"input":119,
					"interpolation":"LINEAR",
					"output":147
				},
				{
					"input":119,
					"interpolation":"LINEAR",
					"output":148
				},
				{
					"input":119,
					"interpolation":"LINEAR",
					"output":120
				},
				{
					"input":119,
					"interpolation":"LINEAR",
					"output":149
				},
				{
					"input":119,
					"interpolation":"LINEAR",
					"output":122
				},
				{
					"input":119,
					"interpolation":"LINEAR",
					"output":150
				},
				{
					"input":119,
					"interpolation":"LINEAR",
					"output":151
				},
				{
					"input":119,
					"interpolation":"LINEAR",
					"output":145
				},
				{
					"input":119,
					"interpolation":"LINEAR",
					"output":152
				},
				{
					"input":119,
					"interpolation":"LINEAR",
					"output":153
				},
				{
					"input":119,
					"interpolation":"LINEAR",
					"output":148
				}
			]
		},
		{
			"channels":[
				{
					"sampler":0,
					"target":{
						"node":7,
						"path":"translation"
					}
				},
				{
					"sampler":1,
					"target":{
						"node":7,
						"path":"rotation"
					}
				},
				{
					"sampler":2,
					"target":{
						"node":7,
						"path":"scale"
					}
				},
				{
					"sampler":3,
					"target":{
						"node":0,
						"path":"translation"
					}
				},
				{
					"sampler":4,
					"target":{
						"node":0,
						"path":"rotation"
					}
				},
				{
					"sampler":5,
					"target":{
						"node":0,
						"path":"scale"
					}
				},
				{
					"sampler":6,
					"target":{
						"node":3,
						"path":"translation"
					}
				},
				{
					"sampler":7,
					"target":{
						"node":3,
						"path":"rotation"
					}
				},
				{
					"sampler":8,
					"target":{
						"node":3,
						"path":"scale"
					}
				},
				{
					"sampler":9,
					"target":{
						"node":2,
						"path":"translation"
					}
				},
				{
					"sampler":10,
					"target":{
						"node":2,
						"path":"rotation"
					}
				},
				{
					"sampler":11,
					"target":{
						"node":2,
						"path":"scale"
					}
				},
				{
					"sampler":12,
					"target":{
						"node":1,
						"path":"translation"
					}
				},
				{
					"sampler":13,
					"target":{
						"node":1,
						"path":"rotation"
					}
				},
				{
					"sampler":14,
					"target":{
						"node":1,
						"path":"scale"
					}
				},
				{
					"sampler":15,
					"target":{
						"node":6,
						"path":"translation"
					}
				},
				{
					"sampler":16,
					"target":{
						"node":6,
						"path":"rotation"
					}
				},
				{
					"sampler":17,
					"target":{
						"node":6,
						"path":"scale"
					}
				},
				{
					"sampler":18,
					"target":{
						"node":5,
						"path":"translation"
					}
				},
				{
					"sampler":19,
					"target":{
						"node":5,
						"path":"rotation"
					}
				},
				{
					"sampler":20,
					"target":{
						"node":5,
						"path":"scale"
					}
				},
				{
					"sampler":21,
					"target":{
						"node":4,
						"path":"translation"
					}
				},
				{
					"sampler":22,
					"target":{
						"node":4,
						"path":"rotation"
					}
				},
				{
					"sampler":23,
					"target":{
						"node":4,
						"path":"scale"
					}
				},
				{
					"sampler":24,
					"target":{
						"node":10,
						"path":"translation"
					}
				},
				{
					"sampler":25,
					"target":{
						"node":10,
						"path":"rotation"
					}
				},
				{
					"sampler":26,
					"target":{
						"node":10,
						"path":"scale"
					}
				},
				{
					"sampler":27,
					"target":{
						"node":9,
						"path":"translation"
					}
				},
				{
					"sampler":28,
					"target":{
						"node":9,
						"path":"rotation"
					}
				},
				{
					"sampler":29,
					"target":{
						"node":9,
						"path":"scale"
					}
				},
				{
					"sampler":30,
					"target":{
						"node":8,
						"path":"translation"
					}
				},
				{
					"sampler":31,
					"target":{
						"node":8,
						"path":"rotation"
					}
				},
				{
					"sampler":32,
					"target":{
						"node":8,
						"path":"scale"
					}
				},
				{
					"sampler":33,
					"target":{
						"node":13,
						"path":"translation"
					}
				},
				{
					"sampler":34,
					"target":{
						"node":13,
						"path":"rotation"
					}
				},
				{
					"sampler":35,
					"target":{
						"node":13,
						"path":"scale"
					}
				},
				{
					"sampler":36,
					"target":{
						"node":12,
						"path":"translation"
					}
				},
				{
					"sampler":37,
					"target":{
						"node":12,
						"path":"rotation"
					}
				},
				{
					"sampler":38,
					"target":{
						"node":12,
						"path":"scale"
					}
				},
				{
					"sampler":39,
					"target":{
						"node":11,
						"path":"translation"
					}
				},
				{
					"sampler":40,
					"target":{
						"node":11,
						"path":"rotation"
					}
				},
				{
					"sampler":41,
					"target":{
						"node":11,
						"path":"scale"
					}
				},
				{
					"sampler":0,
					"target":{
						"node":7,
						"path":"translation"
					}
				},
				{
					"sampler":1,
					"target":{
						"node":7,
						"path":"rotation"
					}
				},
				{
					"sampler":2,
					"target":{
						"node":7,
						"path":"scale"
					}
				},
				{
					"sampler":3,
					"target":{
						"node":0,
						"path":"translation"
					}
				},
				{
					"sampler":4,
					"target":{
						"node":0,
						"path":"rotation"
					}
				},
				{
					"sampler":5,
					"target":{
						"node":0,
						"path":"scale"
					}
				},
				{
					"sampler":6,
					"target":{
						"node":3,
						"path":"translation"
					}
				},
				{
					"sampler":7,
					"target":{
						"node":3,
						"path":"rotation"
					}
				},
				{
					"sampler":8,
					"target":{
						"node":3,
						"path":"scale"
					}
				},
				{
					"sampler":9,
					"target":{
						"node":2,
						"path":"translation"
					}
				},
				{
					"sampler":10,
					"target":{
						"node":2,
						"path":"rotation"
					}
				},
				{
					"sampler":11,
					"target":{
						"node":2,
						"path":"scale"
					}
				},
				{
					"sampler":12,
					"target":{
						"node":1,
						"path":"translation"
					}
				},
				{
					"sampler":13,
					"target":{
						"node":1,
						"path":"rotation"
					}
				},
				{
					"sampler":14,
					"target":{
						"node":1,
						"path":"scale"
					}
				},
				{
					"sampler":15,
					"target":{
						"node":6,
						"path":"translation"
					}
				},
				{
					"sampler":16,
					"target":{
						"node":6,
						"path":"rotation"
					}
				},
				{
					"sampler":17,
					"target":{
						"node":6,
						"path":"scale"
					}
				},
				{
					"sampler":18,
					"target":{
						"node":5,
						"path":"translation"
					}
				},
				{
					"sampler":19,
					"target":{
						"node":5,
						"path":"rotation"
					}
				},
				{
					"sampler":20,
					"target":{
						"node":5,
						"path":"scale"
					}
				},
				{
					"sampler":21,
					"target":{
						"node":4,
						"path":"translation"
					}
				},
				{
					"sampler":22,
					"target":{
						"node":4,
						"path":"rotation"
					}
				},
				{
					"sampler":23,
					"target":{
						"node":4,
						"path":"scale"
					}
				},
				{
					"sampler":24,
					"target":{
						"node":10,
						"path":"translation"
					}
				},
				{
					"sampler":25,
					"target":{
						"node":10,
						"path":"rotation"
					}
				},
				{
					"sampler":26,
					"target":{
						"node":10,
						"path":"scale"
					}
				},
				{
					"sampler":27,
					"target":{
						"node":9,
						"path":"translation"
					}
				},
				{
					"sampler":28,
					"target":{
						"node":9,
						"path":"rotation"
					}
				},
				{
					"sampler":29,
					"target":{
						"node":9,
						"path":"scale"
					}
				},
				{
					"sampler":30,
					"target":{
						"node":8,
						"path":"translation"
					}
				},
				{
					"sampler":31,
					"target":{
						"node":8,
						"path":"rotation"
					}
				},
				{
					"sampler":32,
					"target":{
						"node":8,
						"path":"scale"
					}
				},
				{
					"sampler":33,
					"target":{
						"node":13,
						"path":"translation"
					}
				},
				{
					"sampler":34,
					"target":{
						"node":13,
						"path":"rotation"
					}
				},
				{
					"sampler":35,
					"target":{
						"node":13,
						"path":"scale"
					}
				},
				{
					"sampler":36,
					"target":{
						"node":12,
						"path":"translation"
					}
				},
				{
					"sampler":37,
					"target":{
						"node":12,
						"path":"rotation"
					}
				},
				{
					"sampler":38,
					"target":{
						"node":12,
						"path":"scale"
					}
				},
				{
					"sampler":39,
					"target":{
						"node":11,
						"path":"translation"
					}
				},
				{
					"sampler":40,
					"target":{
						"node":11,
						"path":"rotation"
					}
				},
				{
					"sampler":41,
					"target":{
						"node":11,
						"path":"scale"
					}
				}
			],
			"name":"Think",
			"samplers":[
				{
					"input":119,
					"interpolation":"LINEAR",
					"output":120
				},
				{
					"input":119,
					"interpolation":"LINEAR",
					"output":121
				},
				{
					"input":119,
					"interpolation":"LINEAR",
					"output":122
				},
				{
					"input":119,
					"interpolation":"LINEAR",
					"output":123
				},
				{
					"input":119,
					"interpolation":"LINEAR",
					"output":154
				},
				{
					"input":119,
					"interpolation":"LINEAR",
					"output":155
				},
				{
					"input":119,
					"interpolation":"LINEAR",
					"output":125
				},
				{
					"input":119,
					"interpolation":"LINEAR",
					"output":126
				},
				{
					"input":119,
					"interpolation":"LINEAR",
					"output":127
				},
				{
					"input":119,
					"interpolation":"LINEAR",
					"output":128
				},
				{
					"input":119,
					"interpolation":"LINEAR",
					"output":156
				},
				{
					"input":119,
					"interpolation":"LINEAR",
					"output":155
				},
				{
					"input":119,
					"interpolation":"LINEAR",
					"output":157
				},
				{
					"input":119,
					"interpolation":"LINEAR",
					"output":158
				},
				{
					"input":119,
					"interpolation":"LINEAR",
					"output":159
				},
				{
					"input":119,
					"interpolation":"LINEAR",
					"output":134
				},
				{
					"input":119,
					"interpolation":"LINEAR",
					"output":135
				},
				{
					"input":119,
					"interpolation":"LINEAR",
					"output":127
				},
				{
					"input":119,
					"interpolation":"LINEAR",
					"output":136
				},
				{
					"input":119,
					"interpolation":"LINEAR",
					"output":160
				},
				{
					"input":119,
					"interpolation":"LINEAR",
					"output":130
				},
				{
					"input":119,
					"interpolation":"LINEAR",
					"output":161
				},
				{
					"input":119,
					"interpolation":"LINEAR",
					"output":162
				},
				{
					"input":119,
					"interpolation":"LINEAR",
					"output":122
				},
				{
					"input":119,
					"interpolation":"LINEAR",
					"output":120
				},
				{
					"input":119,
					"interpolation":"LINEAR",
					"output":142
				},
				{
					"input":119,
					"interpolation":"LINEAR",
					"output":122
				},
				{
					"input":119,
					"interpolation":"LINEAR",
					"output":143
				},
				{
					"input":119,
					"interpolation":"LINEAR",
					"output":144
				},
				{
					"input":119,
					"interpolation":"LINEAR",
					"output":145
				},
				{
					"input":119,
					"interpolation":"LINEAR",
					"output":146
				},
				{
					"input":119,
					"interpolation":"LINEAR",
					"output":147
				},
				{
					"input":119,
					"interpolation":"LINEAR",
					"output":148
				},
				{
					"input":119,
					"interpolation":"LINEAR",
					"output":120
				},
				{
					"input":119,
					"interpolation":"LINEAR",
					"output":149
				},
				{
					"input":119,
					"interpolation":"LINEAR",
					"output":122
				},
				{
					"input":119,
					"interpolation":"LINEAR",
					"output":150
				},
				{
					"input":119,
					"interpolation":"LINEAR",
					"output":151
				},
				{
					"input":119,
					"interpolation":"LINEAR",
					"output":145
				},
				{
					"input":119,
					"interpolation":"LINEAR",
					"output":152
				},
				{
					"input":119,
					"interpolation":"LINEAR",
					"output":153
				},
				{
					"input":119,
					"interpolation":"LINEAR",
					"output":148
				}
			]
		},
		{
			"channels":[
				{
					"sampler":0,
					"target":{
						"node":7,
						"path":"translation"
					}
				},
				{
					"sampler":1,
					"target":{
						"node":7,
						"path":"rotation"
					}
				},
				{
					"sampler":2,
					"target":{
						"node":7,
						"path":"scale"
					}
				},
				{
					"sampler":3,
					"target":{
						"node":0,
						"path":"translation"
					}
				},
				{
					"sampler":4,
					"target":{
						"node":0,
						"path":"rotation"
					}
				},
				{
					"sampler":5,
					"target":{
						"node":0,
						"path":"scale"
					}
				},
				{
					"sampler":6,
					"target":{
						"node":3,
						"path":"translation"
					}
				},
				{
					"sampler":7,
					"target":{
						"node":3,
						"path":"rotation"
					}
				},
				{
					"sampler":8,
					"target":{
						"node":3,
						"path":"scale"
					}
				},
				{
					"sampler":9,
					"target":{
						"node":2,
						"path":"translation"
					}
				},
				{
					"sampler":10,
					"target":{
						"node":2,
						"path":"rotation"
					}
				},
				{
					"sampler":11,
					"target":{
						"node":2,
						"path":"scale"
					}
				},
				{
					"sampler":12,
					"target":{
						"node":1,
						"path":"translation"
					}
				},
				{
					"sampler":13,
					"target":{
						"node":1,
						"path":"rotation"
					}
				},
				{
					"sampler":14,
					"target":{
						"node":1,
						"path":"scale"
					}
				},
				{
					"sampler":15,
					"target":{
						"node":6,
						"path":"translation"
					}
				},
				{
					"sampler":16,
					"target":{
						"node":6,
						"path":"rotation"
					}
				},
				{
					"sampler":17,
					"target":{
						"node":6,
						"path":"scale"
					}
				},
				{
					"sampler":18,
					"target":{
						"node":5,
						"path":"translation"
					}
				},
				{
					"sampler":19,
					"target":{
						"node":5,
						"path":"rotation"
					}
				},
				{
					"sampler":20,
					"target":{
						"node":5,
						"path":"scale"
					}
				},
				{
					"sampler":21,
					"target":{
						"node":4,
						"path":"translation"
					}
				},
				{
					"sampler":22,
					"target":{
						"node":4,
						"path":"rotation"
					}
				},
				{
					"sampler":23,
					"target":{
						"node":4,
						"path":"scale"
					}
				},
				{
					"sampler":24,
					"target":{
						"node":10,
						"path":"translation"
					}
				},
				{
					"sampler":25,
					"target":{
						"node":10,
						"path":"rotation"
					}
				},
				{
					"sampler":26,
					"target":{
						"node":10,
						"path":"scale"
					}
				},
				{
					"sampler":27,
					"target":{
						"node":9,
						"path":"translation"
					}
				},
				{
					"sampler":28,
					"target":{
						"node":9,
						"path":"rotation"
					}
				},
				{
					"sampler":29,
					"target":{
						"node":9,
						"path":"scale"
					}
				},
				{
					"sampler":30,
					"target":{
						"node":8,
						"path":"translation"
					}
				},
				{
					"sampler":31,
					"target":{
						"node":8,
						"path":"rotation"
					}
				},
				{
					"sampler":32,
					"target":{
						"node":8,
						"path":"scale"
					}
				},
				{
					"sampler":33,
					"target":{
						"node":13,
						"path":"translation"
					}
				},
				{
					"sampler":34,
					"target":{
						"node":13,
						"path":"rotation"
					}
				},
				{
					"sampler":35,
					"target":{
						"node":13,
						"path":"scale"
					}
				},
				{
					"sampler":36,
					"target":{
						"node":12,
						"path":"translation"
					}
				},
				{
					"sampler":37,
					"target":{
						"node":12,
						"path":"rotation"
					}
				},
				{
					"sampler":38,
					"target":{
						"node":12,
						"path":"scale"
					}
				},
				{
					"sampler":39,
					"target":{
						"node":11,
						"path":"translation"
					}
				},
				{
					"sampler":40,
					"target":{
						"node":11,
						"path":"rotation"
					}
				},
				{
					"sampler":41,
					"target":{
						"node":11,
						"path":"scale"
					}
				}
			],
			"name":"TPose",
			"samplers":[
				{
					"input":119,
					"interpolation":"LINEAR",
					"output":120
				},
				{
					"input":119,
					"interpolation":"LINEAR",
					"output":121
				},
				{
					"input":119,
					"interpolation":"LINEAR",
					"output":122
				},
				{
					"input":119,
					"interpolation":"LINEAR",
					"output":123
				},
				{
					"input":119,
					"interpolation":"LINEAR",
					"output":124
				},
				{
					"input":119,
					"interpolation":"LINEAR",
					"output":122
				},
				{
					"input":119,
					"interpolation":"LINEAR",
					"output":125
				},
				{
					"input":119,
					"interpolation":"LINEAR",
					"output":126
				},
				{
					"input":119,
					"interpolation":"LINEAR",
					"output":127
				},
				{
					"input":119,
					"interpolation":"LINEAR",
					"output":128
				},
				{
					"input":119,
					"interpolation":"LINEAR",
					"output":163
				},
				{
					"input":119,
					"interpolation":"LINEAR",
					"output":164
				},
				{
					"input":119,
					"interpolation":"LINEAR",
					"output":165
				},
				{
					"input":119,
					"interpolation":"LINEAR",
					"output":166
				},
				{
					"input":119,
					"interpolation":"LINEAR",
					"output":167
				},
				{
					"input":119,
					"interpolation":"LINEAR",
					"output":134
				},
				{
					"input":119,
					"interpolation":"LINEAR",
					"output":135
				},
				{
					"input":119,
					"interpolation":"LINEAR",
					"output":127
				},
				{
					"input":119,
					"interpolation":"LINEAR",
					"output":136
				},
				{
					"input":119,
					"interpolation":"LINEAR",
					"output":168
				},
				{
					"input":119,
					"interpolation":"LINEAR",
					"output":130
				},
				{
					"input":119,
					"interpolation":"LINEAR",
					"output":169
				},
				{
					"input":119,
					"interpolation":"LINEAR",
					"output":170
				},
				{
					"input":119,
					"interpolation":"LINEAR",
					"output":167
				},
				{
					"input":119,
					"interpolation":"LINEAR",
					"output":120
				},
				{
					"input":119,
					"interpolation":"LINEAR",
					"output":142
				},
				{
					"input":119,
					"interpolation":"LINEAR",
					"output":122
				},
				{
					"input":119,
					"interpolation":"LINEAR",
					"output":143
				},
				{
					"input":119,
					"interpolation":"LINEAR",
					"output":144
				},
				{
					"input":119,
					"interpolation":"LINEAR",
					"output":145
				},
				{
					"input":119,
					"interpolation":"LINEAR",
					"output":146
				},
				{
					"input":119,
					"interpolation":"LINEAR",
					"output":147
				},
				{
					"input":119,
					"interpolation":"LINEAR",
					"output":148
				},
				{
					"input":119,
					"interpolation":"LINEAR",
					"output":120
				},
				{
					"input":119,
					"interpolation":"LINEAR",
					"output":149
				},
				{
					"input":119,
					"interpolation":"LINEAR",
					"output":122
				},
				{
					"input":119,
					"interpolation":"LINEAR",
					"output":150
				},
				{
					"input":119,
					"interpolation":"LINEAR",
					"output":151
				},
				{
					"input":119,
					"interpolation":"LINEAR",
					"output":145
				},
				{
					"input":119,
					"interpolation":"LINEAR",
					"output":152
				},
				{
					"input":119,
					"interpolation":"LINEAR",
					"output":153
				},
				{
					"input":119,
					"interpolation":"LINEAR",
					"output":148
				}
			]
		}
	],
	"materials":[
		{
			"doubleSided":true,
			"name":"skin",
			"pbrMetallicRoughness":{
				"baseColorFactor":[
					0.7991030812263489,
					0.41254279017448425,
					0.09758737683296204,
					1
				],
				"metallicFactor":0,
				"roughnessFactor":0.5
			}
		},
		{
			"doubleSided":true,
			"name":"black.001",
			"pbrMetallicRoughness":{
				"baseColorFactor":[
					0,
					0,
					0,
					1
				],
				"metallicFactor":0,
				"roughnessFactor":0.5
			}
		},
		{
			"doubleSided":true,
			"name":"Material.003",
			"pbrMetallicRoughness":{
				"baseColorFactor":[
					0,
					0,
					0,
					1
				],
				"metallicFactor":0,
				"roughnessFactor":0.5
			}
		},
		{
			"doubleSided":true,
			"name":"face",
			"pbrMetallicRoughness":{
				"baseColorTexture":{
					"index":0
				},
				"metallicFactor":0,
				"roughnessFactor":0.5
			}
		},
		{
			"doubleSided":true,
			"name":"torso",
			"pbrMetallicRoughness":{
				"baseColorFactor":[
					0.8028851747512817,
					0.1982218325138092,
					0.7283895015716553,
					1
				],
				"metallicFactor":0,
				"roughnessFactor":0.5
			}
		},
		{
			"doubleSided":true,
			"name":"black",
			"pbrMetallicRoughness":{
				"baseColorFactor":[
					0,
					0,
					0,
					1
				],
				"metallicFactor":0,
				"roughnessFactor":0.5
			}
		},
		{
			"doubleSided":true,
			"name":"pants",
			"pbrMetallicRoughness":{
				"baseColorFactor":[
					0.0007444783695973456,
					0.04652034863829613,
					0.8000074625015259,
					1
				],
				"metallicFactor":0,
				"roughnessFactor":0.5
			}
		},
		{
			"doubleSided":true,
			"name":"shirt",
			"pbrMetallicRoughness":{
				"metallicFactor":0,
				"roughnessFactor":0.5
			}
		},
		{
			"doubleSided":true,
			"emissiveFactor":[
				1,
				1,
				1
			],
			"extensions":{
				"KHR_materials_emissive_strength":{
					"emissiveStrength":63.899986267089844
				}
			},
			"name":"Material",
			"pbrMetallicRoughness":{
				"baseColorFactor":[
					0,
					0,
					0,
					1
				]
			}
		}
	],
	"meshes":[
		{
			"name":"Circle.002",
			"primitives":[
				{
					"attributes":{
						"POSITION":0,
						"NORMAL":1,
						"TEXCOORD_0":2,
						"JOINTS_0":3,
						"WEIGHTS_0":4
					},
					"indices":5,
					"material":0
				}
			]
		},
		{
			"name":"Cube.005",
			"primitives":[
				{
					"attributes":{
						"POSITION":7,
						"NORMAL":8,
						"TEXCOORD_0":9,
						"JOINTS_0":10,
						"WEIGHTS_0":11
					},
					"indices":12,
					"material":1
				}
			]
		},
		{
			"name":"Cube.004",
			"primitives":[
				{
					"attributes":{
						"POSITION":13,
						"NORMAL":14,
						"TEXCOORD_0":15,
						"JOINTS_0":16,
						"WEIGHTS_0":17
					},
					"indices":18,
					"material":2
				}
			]
		},
		{
			"name":"Cube.002",
			"primitives":[
				{
					"attributes":{
						"POSITION":19,
						"NORMAL":20,
						"TEXCOORD_0":21,
						"JOINTS_0":22,
						"WEIGHTS_0":23
					},
					"indices":24,
					"material":3
				}
			]
		},
		{
			"name":"Circle.003",
			"primitives":[
				{
					"attributes":{
						"POSITION":25,
						"NORMAL":26,
						"TEXCOORD_0":27,
						"JOINTS_0":28,
						"WEIGHTS_0":29
					},
					"indices":30,
					"material":4
				},
				{
					"attributes":{
						"POSITION":31,
						"NORMAL":32,
						"TEXCOORD_0":33,
						"JOINTS_0":34,
						"WEIGHTS_0":35
					},
					"indices":36,
					"material":0
				},
				{
					"attributes":{
						"POSITION":37,
						"NORMAL":38,
						"TEXCOORD_0":39,
						"JOINTS_0":40,
						"WEIGHTS_0":41
					},
					"indices":42,
					"material":5
				}
			]
		},
		{
			"name":"Cube",
			"primitives":[
				{
					"attributes":{
						"POSITION":43,
						"NORMAL":44,
						"TEXCOORD_0":45,
						"JOINTS_0":46,
						"WEIGHTS_0":47
					},
					"indices":48,
					"material":0
				}
			]
		},
		{
			"name":"Mesh",
			"primitives":[
				{
					"attributes":{
						"POSITION":49,
						"NORMAL":50,
						"TEXCOORD_0":51,
						"JOINTS_0":52,
						"WEIGHTS_0":53
					},
					"indices":54,
					"material":6
				}
			]
		},
		{
			"name":"Cube.003",
			"primitives":[
				{
					"attributes":{
						"POSITION":55,
						"NORMAL":56,
						"TEXCOORD_0":57,
						"JOINTS_0":58,
						"WEIGHTS_0":59
					},
					"indices":60,
					"material":4
				},
				{
					"attributes":{
						"POSITION":61,
						"NORMAL":62,
						"TEXCOORD_0":63,
						"JOINTS_0":64,
						"WEIGHTS_0":65
					},
					"indices":66,
					"material":0
				},
				{
					"attributes":{
						"POSITION":67,
						"NORMAL":68,
						"TEXCOORD_0":69,
						"JOINTS_0":70,
						"WEIGHTS_0":71
					},
					"indices":72,
					"material":7
				},
				{
					"attributes":{
						"POSITION":73,
						"NORMAL":74,
						"TEXCOORD_0":75,
						"JOINTS_0":76,
						"WEIGHTS_0":77
					},
					"indices":78,
					"material":5
				}
			]
		},
		{
			"name":"Plane",
			"primitives":[
				{
					"attributes":{
						"POSITION":79,
						"NORMAL":80,
						"TEXCOORD_0":81
					},
					"indices":82,
					"material":8
				}
			]
		}
	],
	"textures":[
		{
			"sampler":0,
			"source":0
		}
	],
	"images":[
		{
			"mimeType":"image/png",
			"name":"face",
			"uri":"face.png"
		}
	],
	"skins":[
		{
			"inverseBindMatrices":6,
			"joints":[
				7,
				0,
				3,
				2,
				1,
				6,
				5,
				4,
				10,
				9,
				8,
				13,
				12,
				11
			],
			"name":"Armature"
		}
	],
	"accessors":[
		{
			"bufferView":0,
			"componentType":5126,
			"count":128,
			"max":[
				1.3155189752578735,
				1.468531847000122,
				0.5043010711669922
			],
			"min":[
				-1.3101235628128052,
				0.974197506904602,
				-0.294592946767807
			],
			"type":"VEC3"
		},
		{
			"bufferView":1,
			"componentType":5126,
			"count":128,
			"type":"VEC3"
		},
		{
			"bufferView":2,
			"componentType":5126,
			"count":128,
			"type":"VEC2"
		},
		{
			"bufferView":3,
			"componentType":5121,
			"count":128,
			"type":"VEC4"
		},
		{
			"bufferView":4,
			"componentType":5126,
			"count":128,
			"type":"VEC4"
		},
		{
			"bufferView":5,
			"componentType":5123,
			"count":648,
			"type":"SCALAR"
		},
		{
			"bufferView":6,
			"componentType":5126,
			"count":14,
			"type":"MAT4"
		},
		{
			"bufferView":7,
			"componentType":5126,
			"count":360,
			"max":[
				0.860140860080719,
				1.5708496570587158,
				1.0624029636383057
			],
			"min":[
				-0.854745626449585,
				1.2204790115356445,
				1.0134506225585938
			],
			"type":"VEC3"
		},
		{
			"bufferView":8,
			"componentType":5126,
			"count":360,
			"type":"VEC3"
		},
		{
			"bufferView":9,
			"componentType":5126,
			"count":360,
			"type":"VEC2"
		},
		{
			"bufferView":10,
			"componentType":5121,
			"count":360,
			"type":"VEC4"
		},
		{
			"bufferView":11,
			"componentType":5126,
			"count":360,
			"type":"VEC4"
		},
		{
			"bufferView":12,
			"componentType":5123,
			"count":1866,
			"type":"SCALAR"
		},
		{
			"bufferView":13,
			"componentType":5126,
			"count":444,
			"max":[
				1.7120853662490845,
				2.8935294151306152,
				1.0067706108093262
			],
			"min":[
				-1.653027057647705,
				0.9122939109802246,
				-1.189301609992981
			],
			"type":"VEC3"
		},
		{
			"bufferView":14,
			"componentType":5126,
			"count":444,
			"type":"VEC3"
		},
		{
			"bufferView":15,
			"componentType":5126,
			"count":444,
			"type":"VEC2"
		},
		{
			"bufferView":16,
			"componentType":5121,
			"count":444,
			"type":"VEC4"
		},
		{
			"bufferView":17,
			"componentType":5126,
			"count":444,
			"type":"VEC4"
		},
		{
			"bufferView":18,
			"componentType":5123,
			"count":1908,
			"type":"SCALAR"
		},
		{
			"bufferView":19,
			"componentType":5126,
			"count":491,
			"max":[
				1.062017560005188,
				2.5515122413635254,
				0.9928077459335327
			],
			"min":[
				-1.0566223859786987,
				0.5605646371841431,
				-1.1425114870071411
			],
			"type":"VEC3"
		},
		{
			"bufferView":20,
			"componentType":5126,
			"count":491,
			"type":"VEC3"
		},
		{
			"bufferView":21,
			"componentType":5126,
			"count":491,
			"type":"VEC2"
		},
		{
			"bufferView":22,
			"componentType":5121,
			"count":491,
			"type":"VEC4"
		},
		{
			"bufferView":23,
			"componentType":5126,
			"count":491,
			"type":"VEC4"
		},
		{
			"bufferView":24,
			"componentType":5123,
			"count":2496,
			"type":"SCALAR"
		},
		{
			"bufferView":25,
			"componentType":5126,
			"count":316,
			"max":[
				0.44832557439804077,
				-1.3854225873947144,
				0.14400705695152283
			],
			"min":[
				-0.4429303705692291,
				-1.923804521560669,
				-0.19723539054393768
			],
			"type":"VEC3"
		},
		{
			"bufferView":26,
			"componentType":5126,
			"count":316,
			"type":"VEC3"
		},
		{
			"bufferView":27,
			"componentType":5126,
			"count":316,
			"type":"VEC2"
		},
		{
			"bufferView":28,
			"componentType":5121,
			"count":316,
			"type":"VEC4"
		},
		{
			"bufferView":29,
			"componentType":5126,
			"count":316,
			"type":"VEC4"
		},
		{
			"bufferView":30,
			"componentType":5123,
			"count":1536,
			"type":"SCALAR"
		},
		{
			"bufferView":31,
			"componentType":5126,
			"count":106,
			"max":[
				0.39580297470092773,
				-1.920168399810791,
				0.13488073647022247
			],
			"min":[
				-0.3904077112674713,
				-2.015367031097412,
				-0.16108568012714386
			],
			"type":"VEC3"
		},
		{
			"bufferView":32,
			"componentType":5126,
			"count":106,
			"type":"VEC3"
		},
		{
			"bufferView":33,
			"componentType":5126,
			"count":106,
			"type":"VEC2"
		},
		{
			"bufferView":34,
			"componentType":5121,
			"count":106,
			"type":"VEC4"
		},
		{
			"bufferView":35,
			"componentType":5126,
			"count":106,
			"type":"VEC4"
		},
		{
			"bufferView":36,
			"componentType":5123,
			"count":384,
			"type":"SCALAR"
		},
		{
			"bufferView":37,
			"componentType":5126,
			"count":724,
			"max":[
				0.45642751455307007,
				-1.998615026473999,
				0.3756297528743744
			],
			"min":[
				-0.4510323107242584,
				-2.143850326538086,
				-0.17481063306331635
			],
			"type":"VEC3"
		},
		{
			"bufferView":38,
			"componentType":5126,
			"count":724,
			"type":"VEC3"
		},
		{
			"bufferView":39,
			"componentType":5126,
			"count":724,
			"type":"VEC2"
		},
		{
			"bufferView":40,
			"componentType":5121,
			"count":724,
			"type":"VEC4"
		},
		{
			"bufferView":41,
			"componentType":5126,
			"count":724,
			"type":"VEC4"
		},
		{
			"bufferView":42,
			"componentType":5123,
			"count":3000,
			"type":"SCALAR"
		},
		{
			"bufferView":43,
			"componentType":5126,
			"count":14,
			"max":[
				0.11907301843166351,
				1.5590739250183105,
				1.0731782913208008
			],
			"min":[
				-0.11907301843166351,
				1.2345502376556396,
				0.8980727195739746
			],
			"type":"VEC3"
		},
		{
			"bufferView":44,
			"componentType":5126,
			"count":14,
			"type":"VEC3"
		},
		{
			"bufferView":45,
			"componentType":5126,
			"count":14,
			"type":"VEC2"
		},
		{
			"bufferView":46,
			"componentType":5121,
			"count":14,
			"type":"VEC4"
		},
		{
			"bufferView":47,
			"componentType":5126,
			"count":14,
			"type":"VEC4"
		},
		{
			"bufferView":48,
			"componentType":5123,
			"count":36,
			"type":"SCALAR"
		},
		{
			"bufferView":49,
			"componentType":5126,
			"count":758,
			"max":[
				0.571589469909668,
				-0.6609507203102112,
				0.4915628433227539
			],
			"min":[
				-0.571589469909668,
				-1.9842253923416138,
				-0.4707646071910858
			],
			"type":"VEC3"
		},
		{
			"bufferView":50,
			"componentType":5126,
			"count":758,
			"type":"VEC3"
		},
		{
			"bufferView":51,
			"componentType":5126,
			"count":758,
			"type":"VEC2"
		},
		{
			"bufferView":52,
			"componentType":5121,
			"count":758,
			"type":"VEC4"
		},
		{
			"bufferView":53,
			"componentType":5126,
			"count":758,
			"type":"VEC4"
		},
		{
			"bufferView":54,
			"componentType":5123,
			"count":2988,
			"type":"SCALAR"
		},
		{
			"bufferView":55,
			"componentType":5126,
			"count":518,
			"max":[
				1.1195411682128906,
				0.70689457654953,
				0.6306172609329224
			],
			"min":[
				-1.1195411682128906,
				-1.0684961080551147,
				-0.7644606232643127
			],
			"type":"VEC3"
		},
		{
			"bufferView":56,
			"componentType":5126,
			"count":518,
			"type":"VEC3"
		},
		{
			"bufferView":57,
			"componentType":5126,
			"count":518,
			"type":"VEC2"
		},
		{
			"bufferView":58,
			"componentType":5121,
			"count":518,
			"type":"VEC4"
		},
		{
			"bufferView":59,
			"componentType":5126,
			"count":518,
			"type":"VEC4"
		},
		{
			"bufferView":60,
			"componentType":5123,
			"count":1956,
			"type":"SCALAR"
		},
		{
			"bufferView":61,
			"componentType":5126,
			"count":276,
			"max":[
				1.8903316259384155,
				0.6958044171333313,
				0.23307551443576813
			],
			"min":[
				-1.8903316259384155,
				0.18562527000904083,
				-0.25064918398857117
			],
			"type":"VEC3"
		},
		{
			"bufferView":62,
			"componentType":5126,
			"count":276,
			"type":"VEC3"
		},
		{
			"bufferView":63,
			"componentType":5126,
			"count":276,
			"type":"VEC2"
		},
		{
			"bufferView":64,
			"componentType":5121,
			"count":276,
			"type":"VEC4"
		},
		{
			"bufferView":65,
			"componentType":5126,
			"count":276,
			"type":"VEC4"
		},
		{
			"bufferView":66,
			"componentType":5123,
			"count":1224,
			"type":"SCALAR"
		},
		{
			"bufferView":67,
			"componentType":5126,
			"count":27,
			"max":[
				0.30422279238700867,
				0.5271570086479187,
				0.5493181943893433
			],
			"min":[
				-0.30422279238700867,
				-0.7544077634811401,
				0.18517981469631195
			],
			"type":"VEC3"
		},
		{
			"bufferView":68,
			"componentType":5126,
			"count":27,
			"type":"VEC3"
		},
		{
			"bufferView":69,
			"componentType":5126,
			"count":27,
			"type":"VEC2"
		},
		{
			"bufferView":70,
			"componentType":5121,
			"count":27,
			"type":"VEC4"
		},
		{
			"bufferView":71,
			"componentType":5126,
			"count":27,
			"type":"VEC4"
		},
		{
			"bufferView":72,
			"componentType":5123,
			"count":96,
			"type":"SCALAR"
		},
		{
			"bufferView":73,
			"componentType":5126,
			"count":18,
			"max":[
				0.6091840267181396,
				-0.6508811712265015,
				0.5493181943893433
			],
			"min":[
				-0.6091840267181396,
				-0.7544078230857849,
				-0.549318253993988
			],
			"type":"VEC3"
		},
		{
			"bufferView":74,
			"componentType":5126,
			"count":18,
			"type":"VEC3"
		},
		{
			"bufferView":75,
			"componentType":5126,
			"count":18,
			"type":"VEC2"
		},
		{
			"bufferView":76,
			"componentType":5121,
			"count":18,
			"type":"VEC4"
		},
		{
			"bufferView":77,
			"componentType":5126,
			"count":18,
			"type":"VEC4"
		},
		{
			"bufferView":78,
			"componentType":5123,
			"count":42,
			"type":"SCALAR"
		},
		{
			"bufferView":79,
			"componentType":5126,
			"count":4,
			"max":[
				1,
				0,
				1
			],
			"min":[
				-1,
				0,
				-1
			],
			"type":"VEC3"
		},
		{
			"bufferView":80,
			"componentType":5126,
			"count":4,
			"type":"VEC3"
		},
		{
			"bufferView":81,
			"componentType":5126,
			"count":4,
			"type":"VEC2"
		},
		{
			"bufferView":82,
			"componentType":5123,
			"count":6,
			"type":"SCALAR"
		},
		{
			"bufferView":83,
			"componentType":5126,
			"count":2,
			"max":[
				1
			],
			"min":[
				0
			],
			"type":"SCALAR"
		},
		{
			"bufferView":84,
			"componentType":5126,
			"count":2,
			"type":"VEC3"
		},
		{
			"bufferView":85,
			"componentType":5126,
			"count":25,
			"max":[
				1
			],
			"min":[
				0
			],
			"type":"SCALAR"
		},
		{
			"bufferView":86,
			"componentType":5126,
			"count":25,
			"type":"VEC4"
		},
		{
			"bufferView":87,
			"componentType":5126,
			"count":2,
			"type":"VEC3"
		},
		{
			"bufferView":88,
			"componentType":5126,
			"count":2,
			"type":"VEC3"
		},
		{
			"bufferView":89,
			"componentType":5126,
			"count":25,
			"type":"VEC4"
		},
		{
			"bufferView":90,
			"componentType":5126,
			"count":2,
			"type":"VEC3"
		},
		{
			"bufferView":91,
			"componentType":5126,
			"count":2,
			"type":"VEC3"
		},
		{
			"bufferView":92,
			"componentType":5126,
			"count":2,
			"type":"VEC4"
		},
		{
			"bufferView":93,
			"componentType":5126,
			"count":2,
			"type":"VEC3"
		},
		{
			"bufferView":94,
			"componentType":5126,
			"count":2,
			"type":"VEC3"
		},
		{
			"bufferView":95,
			"componentType":5126,
			"count":25,
			"type":"VEC4"
		},
		{
			"bufferView":96,
			"componentType":5126,
			"count":2,
			"type":"VEC3"
		},
		{
			"bufferView":97,
			"componentType":5126,
			"count":2,
			"type":"VEC3"
		},
		{
			"bufferView":98,
			"componentType":5126,
			"count":2,
			"type":"VEC4"
		},
		{
			"bufferView":99,
			"componentType":5126,
			"count":2,
			"type":"VEC3"
		},
		{
			"bufferView":100,
			"componentType":5126,
			"count":2,
			"type":"VEC3"
		},
		{
			"bufferView":101,
			"componentType":5126,
			"count":2,
			"type":"VEC4"
		},
		{
			"bufferView":102,
			"componentType":5126,
			"count":2,
			"type":"VEC3"
		},
		{
			"bufferView":103,
			"componentType":5126,
			"count":25,
			"type":"VEC4"
		},
		{
			"bufferView":104,
			"componentType":5126,
			"count":2,
			"type":"VEC3"
		},
		{
			"bufferView":105,
			"componentType":5126,
			"count":2,
			"type":"VEC4"
		},
		{
			"bufferView":106,
			"componentType":5126,
			"count":2,
			"type":"VEC3"
		},
		{
			"bufferView":107,
			"componentType":5126,
			"count":2,
			"type":"VEC4"
		},
		{
			"bufferView":108,
			"componentType":5126,
			"count":2,
			"type":"VEC3"
		},
		{
			"bufferView":109,
			"componentType":5126,
			"count":2,
			"type":"VEC4"
		},
		{
			"bufferView":110,
			"componentType":5126,
			"count":2,
			"type":"VEC3"
		},
		{
			"bufferView":111,
			"componentType":5126,
			"count":2,
			"type":"VEC3"
		},
		{
			"bufferView":112,
			"componentType":5126,
			"count":2,
			"type":"VEC4"
		},
		{
			"bufferView":113,
			"componentType":5126,
			"count":2,
			"type":"VEC3"
		},
		{
			"bufferView":114,
			"componentType":5126,
			"count":2,
			"type":"VEC4"
		},
		{
			"bufferView":115,
			"componentType":5126,
			"count":2,
			"type":"VEC3"
		},
		{
			"bufferView":116,
			"componentType":5126,
			"count":2,
			"type":"VEC4"
		},
		{
			"bufferView":117,
			"componentType":5126,
			"count":2,
			"type":"VEC3"
		},
		{
			"bufferView":118,
			"componentType":5126,
			"count":2,
			"type":"VEC4"
		},
		{
			"bufferView":119,
			"componentType":5126,
			"count":1,
			"max":[
				0
			],
			"min":[
				0
			],
			"type":"SCALAR"
		},
		{
			"bufferView":120,
			"componentType":5126,
			"count":1,
			"type":"VEC3"
		},
		{
			"bufferView":121,
			"componentType":5126,
			"count":1,
			"type":"VEC4"
		},
		{
			"bufferView":122,
			"componentType":5126,
			"count":1,
			"type":"VEC3"
		},
		{
			"bufferView":123,
			"componentType":5126,
			"count":1,
			"type":"VEC3"
		},
		{
			"bufferView":124,
			"componentType":5126,
			"count":1,
			"type":"VEC4"
		},
		{
			"bufferView":125,
			"componentType":5126,
			"count":1,
			"type":"VEC3"
		},
		{
			"bufferView":126,
			"componentType":5126,
			"count":1,
			"type":"VEC4"
		},
		{
			"bufferView":127,
			"componentType":5126,
			"count":1,
			"type":"VEC3"
		},
		{
			"bufferView":128,
			"componentType":5126,
			"count":1,
			"type":"VEC3"
		},
		{
			"bufferView":129,
			"componentType":5126,
			"count":1,
			"type":"VEC4"
		},
		{
			"bufferView":130,
			"componentType":5126,
			"count":1,
			"type":"VEC3"
		},
		{
			"bufferView":131,
			"componentType":5126,
			"count":1,
			"type":"VEC3"
		},
		{
			"bufferView":132,
			"componentType":5126,
			"count":1,
			"type":"VEC4"
		},
		{
			"bufferView":133,
			"componentType":5126,
			"count":1,
			"type":"VEC3"
		},
		{
			"bufferView":134,
			"componentType":5126,
			"count":1,
			"type":"VEC3"
		},
		{
			"bufferView":135,
			"componentType":5126,
			"count":1,
			"type":"VEC4"
		},
		{
			"bufferView":136,
			"componentType":5126,
			"count":1,
			"type":"VEC3"
		},
		{
			"bufferView":137,
			"componentType":5126,
			"count":1,
			"type":"VEC4"
		},
		{
			"bufferView":138,
			"componentType":5126,
			"count":1,
			"type":"VEC3"
		},
		{
			"bufferView":139,
			"componentType":5126,
			"count":1,
			"type":"VEC3"
		},
		{
			"bufferView":140,
			"componentType":5126,
			"count":1,
			"type":"VEC4"
		},
		{
			"bufferView":141,
			"componentType":5126,
			"count":1,
			"type":"VEC3"
		},
		{
			"bufferView":142,
			"componentType":5126,
			"count":1,
			"type":"VEC4"
		},
		{
			"bufferView":143,
			"componentType":5126,
			"count":1,
			"type":"VEC3"
		},
		{
			"bufferView":144,
			"componentType":5126,
			"count":1,
			"type":"VEC4"
		},
		{
			"bufferView":145,
			"componentType":5126,
			"count":1,
			"type":"VEC3"
		},
		{
			"bufferView":146,
			"componentType":5126,
			"count":1,
			"type":"VEC3"
		},
		{
			"bufferView":147,
			"componentType":5126,
			"count":1,
			"type":"VEC4"
		},
		{
			"bufferView":148,
			"componentType":5126,
			"count":1,
			"type":"VEC3"
		},
		{
			"bufferView":149,
			"componentType":5126,
			"count":1,
			"type":"VEC4"
		},
		{
			"bufferView":150,
			"componentType":5126,
			"count":1,
			"type":"VEC3"
		},
		{
			"bufferView":151,
			"componentType":5126,
			"count":1,
			"type":"VEC4"
		},
		{
			"bufferView":152,
			"componentType":5126,
			"count":1,
			"type":"VEC3"
		},
		{
			"bufferView":153,
			"componentType":5126,
			"count":1,
			"type":"VEC4"
		},
		{
			"bufferView":154,
			"componentType":5126,
			"count":1,
			"type":"VEC4"
		},
		{
			"bufferView":155,
			"componentType":5126,
			"count":1,
			"type":"VEC3"
		},
		{
			"bufferView":156,
			"componentType":5126,
			"count":1,
			"type":"VEC4"
		},
		{
			"bufferView":157,
			"componentType":5126,
			"count":1,
			"type":"VEC3"
		},
		{
			"bufferView":158,
			"componentType":5126,
			"count":1,
			"type":"VEC4"
		},
		{
			"bufferView":159,
			"componentType":5126,
			"count":1,
			"type":"VEC3"
		},
		{
			"bufferView":160,
			"componentType":5126,
			"count":1,
			"type":"VEC4"
		},
		{
			"bufferView":161,
			"componentType":5126,
			"count":1,
			"type":"VEC3"
		},
		{
			"bufferView":162,
			"componentType":5126,
			"count":1,
			"type":"VEC4"
		},
		{
			"bufferView":163,
			"componentType":5126,
			"count":1,
			"type":"VEC4"
		},
		{
			"bufferView":164,
			"componentType":5126,
			"count":1,
			"type":"VEC3"
		},
		{
			"bufferView":165,
			"componentType":5126,
			"count":1,
			"type":"VEC3"
		},
		{
			"bufferView":166,
			"componentType":5126,
			"count":1,
			"type":"VEC4"
		},
		{
			"bufferView":167,
			"componentType":5126,
			"count":1,
			"type":"VEC3"
		},
		{
			"bufferView":168,
			"componentType":5126,
			"count":1,
			"type":"VEC4"
		},
		{
			"bufferView":169,
			"componentType":5126,
			"count":1,
			"type":"VEC3"
		},
		{
			"bufferView":170,
			"componentType":5126,
			"count":1,
			"type":"VEC4"
		}
	],
	"bufferViews":[
		{
			"buffer":0,
			"byteLength":1536,
			"byteOffset":0,
			"target":34962
		},
		{
			"buffer":0,
			"byteLength":1536,
			"byteOffset":1536,
			"target":34962
		},
		{
			"buffer":0,
			"byteLength":1024,
			"byteOffset":3072,
			"target":34962
		},
		{
			"buffer":0,
			"byteLength":512,
			"byteOffset":4096,
			"target":34962
		},
		{
			"buffer":0,
			"byteLength":2048,
			"byteOffset":4608,
			"target":34962
		},
		{
			"buffer":0,
			"byteLength":1296,
			"byteOffset":6656,
			"target":34963
		},
		{
			"buffer":0,
			"byteLength":896,
			"byteOffset":7952
		},
		{
			"buffer":0,
			"byteLength":4320,
			"byteOffset":8848,
			"target":34962
		},
		{
			"buffer":0,
			"byteLength":4320,
			"byteOffset":13168,
			"target":34962
		},
		{
			"buffer":0,
			"byteLength":2880,
			"byteOffset":17488,
			"target":34962
		},
		{
			"buffer":0,
			"byteLength":1440,
			"byteOffset":20368,
			"target":34962
		},
		{
			"buffer":0,
			"byteLength":5760,
			"byteOffset":21808,
			"target":34962
		},
		{
			"buffer":0,
			"byteLength":3732,
			"byteOffset":27568,
			"target":34963
		},
		{
			"buffer":0,
			"byteLength":5328,
			"byteOffset":31300,
			"target":34962
		},
		{
			"buffer":0,
			"byteLength":5328,
			"byteOffset":36628,
			"target":34962
		},
		{
			"buffer":0,
			"byteLength":3552,
			"byteOffset":41956,
			"target":34962
		},
		{
			"buffer":0,
			"byteLength":1776,
			"byteOffset":45508,
			"target":34962
		},
		{
			"buffer":0,
			"byteLength":7104,
			"byteOffset":47284,
			"target":34962
		},
		{
			"buffer":0,
			"byteLength":3816,
			"byteOffset":54388,
			"target":34963
		},
		{
			"buffer":0,
			"byteLength":5892,
			"byteOffset":58204,
			"target":34962
		},
		{
			"buffer":0,
			"byteLength":5892,
			"byteOffset":64096,
			"target":34962
		},
		{
			"buffer":0,
			"byteLength":3928,
			"byteOffset":69988,
			"target":34962
		},
		{
			"buffer":0,
			"byteLength":1964,
			"byteOffset":73916,
			"target":34962
		},
		{
			"buffer":0,
			"byteLength":7856,
			"byteOffset":75880,
			"target":34962
		},
		{
			"buffer":0,
			"byteLength":4992,
			"byteOffset":83736,
			"target":34963
		},
		{
			"buffer":0,
			"byteLength":3792,
			"byteOffset":88728,
			"target":34962
		},
		{
			"buffer":0,
			"byteLength":3792,
			"byteOffset":92520,
			"target":34962
		},
		{
			"buffer":0,
			"byteLength":2528,
			"byteOffset":96312,
			"target":34962
		},
		{
			"buffer":0,
			"byteLength":1264,
			"byteOffset":98840,
			"target":34962
		},
		{
			"buffer":0,
			"byteLength":5056,
			"byteOffset":100104,
			"target":34962
		},
		{
			"buffer":0,
			"byteLength":3072,
			"byteOffset":105160,
			"target":34963
		},
		{
			"buffer":0,
			"byteLength":1272,
			"byteOffset":108232,
			"target":34962
		},
		{
			"buffer":0,
			"byteLength":1272,
			"byteOffset":109504,
			"target":34962
		},
		{
			"buffer":0,
			"byteLength":848,
			"byteOffset":110776,
			"target":34962
		},
		{
			"buffer":0,
			"byteLength":424,
			"byteOffset":111624,
			"target":34962
		},
		{
			"buffer":0,
			"byteLength":1696,
			"byteOffset":112048,
			"target":34962
		},
		{
			"buffer":0,
			"byteLength":768,
			"byteOffset":113744,
			"target":34963
		},
		{
			"buffer":0,
			"byteLength":8688,
			"byteOffset":114512,
			"target":34962
		},
		{
			"buffer":0,
			"byteLength":8688,
			"byteOffset":123200,
			"target":34962
		},
		{
			"buffer":0,
			"byteLength":5792,
			"byteOffset":131888,
			"target":34962
		},
		{
			"buffer":0,
			"byteLength":2896,
			"byteOffset":137680,
			"target":34962
		},
		{
			"buffer":0,
			"byteLength":11584,
			"byteOffset":140576,
			"target":34962
		},
		{
			"buffer":0,
			"byteLength":6000,
			"byteOffset":152160,
			"target":34963
		},
		{
			"buffer":0,
			"byteLength":168,
			"byteOffset":158160,
			"target":34962
		},
		{
			"buffer":0,
			"byteLength":168,
			"byteOffset":158328,
			"target":34962
		},
		{
			"buffer":0,
			"byteLength":112,
			"byteOffset":158496,
			"target":34962
		},
		{
			"buffer":0,
			"byteLength":56,
			"byteOffset":158608,
			"target":34962
		},
		{
			"buffer":0,
			"byteLength":224,
			"byteOffset":158664,
			"target":34962
		},
		{
			"buffer":0,
			"byteLength":72,
			"byteOffset":158888,
			"target":34963
		},
		{
			"buffer":0,
			"byteLength":9096,
			"byteOffset":158960,
			"target":34962
		},
		{
			"buffer":0,
			"byteLength":9096,
			"byteOffset":168056,
			"target":34962
		},
		{
			"buffer":0,
			"byteLength":6064,
			"byteOffset":177152,
			"target":34962
		},
		{
			"buffer":0,
			"byteLength":3032,
			"byteOffset":183216,
			"target":34962
		},
		{
			"buffer":0,
			"byteLength":12128,
			"byteOffset":186248,
			"target":34962
		},
		{
			"buffer":0,
			"byteLength":5976,
			"byteOffset":198376,
			"target":34963
		},
		{
			"buffer":0,
			"byteLength":6216,
			"byteOffset":204352,
			"target":34962
		},
		{
			"buffer":0,
			"byteLength":6216,
			"byteOffset":210568,
			"target":34962
		},
		{
			"buffer":0,
			"byteLength":4144,
			"byteOffset":216784,
			"target":34962
		},
		{
			"buffer":0,
			"byteLength":2072,
			"byteOffset":220928,
			"target":34962
		},
		{
			"buffer":0,
			"byteLength":8288,
			"byteOffset":223000,
			"target":34962
		},
		{
			"buffer":0,
			"byteLength":3912,
			"byteOffset":231288,
			"target":34963
		},
		{
			"buffer":0,
			"byteLength":3312,
			"byteOffset":235200,
			"target":34962
		},
		{
			"buffer":0,
			"byteLength":3312,
			"byteOffset":238512,
			"target":34962
		},
		{
			"buffer":0,
			"byteLength":2208,
			"byteOffset":241824,
			"target":34962
		},
		{
			"buffer":0,
			"byteLength":1104,
			"byteOffset":244032,
			"target":34962
		},
		{
			"buffer":0,
			"byteLength":4416,
			"byteOffset":245136,
			"target":34962
		},
		{
			"buffer":0,
			"byteLength":2448,
			"byteOffset":249552,
			"target":34963
		},
		{
			"buffer":0,
			"byteLength":324,
			"byteOffset":252000,
			"target":34962
		},
		{
			"buffer":0,
			"byteLength":324,
			"byteOffset":252324,
			"target":34962
		},
		{
			"buffer":0,
			"byteLength":216,
			"byteOffset":252648,
			"target":34962
		},
		{
			"buffer":0,
			"byteLength":108,
			"byteOffset":252864,
			"target":34962
		},
		{
			"buffer":0,
			"byteLength":432,
			"byteOffset":252972,
			"target":34962
		},
		{
			"buffer":0,
			"byteLength":192,
			"byteOffset":253404,
			"target":34963
		},
		{
			"buffer":0,
			"byteLength":216,
			"byteOffset":253596,
			"target":34962
		},
		{
			"buffer":0,
			"byteLength":216,
			"byteOffset":253812,
			"target":34962
		},
		{
			"buffer":0,
			"byteLength":144,
			"byteOffset":254028,
			"target":34962
		},
		{
			"buffer":0,
			"byteLength":72,
			"byteOffset":254172,
			"target":34962
		},
		{
			"buffer":0,
			"byteLength":288,
			"byteOffset":254244,
			"target":34962
		},
		{
			"buffer":0,
			"byteLength":84,
			"byteOffset":254532,
			"target":34963
		},
		{
			"buffer":0,
			"byteLength":48,
			"byteOffset":254616,
			"target":34962
		},
		{
			"buffer":0,
			"byteLength":48,
			"byteOffset":254664,
			"target":34962
		},
		{
			"buffer":0,
			"byteLength":32,
			"byteOffset":254712,
			"target":34962
		},
		{
			"buffer":0,
			"byteLength":12,
			"byteOffset":254744,
			"target":34963
		},
		{
			"buffer":0,
			"byteLength":8,
			"byteOffset":254756
		},
		{
			"buffer":0,
			"byteLength":24,
			"byteOffset":254764
		},
		{
			"buffer":0,
			"byteLength":100,
			"byteOffset":254788
		},
		{
			"buffer":0,
			"byteLength":400,
			"byteOffset":254888
		},
		{
			"buffer":0,
			"byteLength":24,
			"byteOffset":255288
		},
		{
			"buffer":0,
			"byteLength":24,
			"byteOffset":255312
		},
		{
			"buffer":0,
			"byteLength":400,
			"byteOffset":255336
		},
		{
			"buffer":0,
			"byteLength":24,
			"byteOffset":255736
		},
		{
			"buffer":0,
			"byteLength":24,
			"byteOffset":255760
		},
		{
			"buffer":0,
			"byteLength":32,
			"byteOffset":255784
		},
		{
			"buffer":0,
			"byteLength":24,
			"byteOffset":255816
		},
		{
			"buffer":0,
			"byteLength":24,
			"byteOffset":255840
		},
		{
			"buffer":0,
			"byteLength":400,
			"byteOffset":255864
		},
		{
			"buffer":0,
			"byteLength":24,
			"byteOffset":256264
		},
		{
			"buffer":0,
			"byteLength":24,
			"byteOffset":256288
		},
		{
			"buffer":0,
			"byteLength":32,
			"byteOffset":256312
		},
		{
			"buffer":0,
			"byteLength":24,
			"byteOffset":256344
		},
		{
			"buffer":0,
			"byteLength":24,
			"byteOffset":256368
		},
		{
			"buffer":0,
			"byteLength":32,
			"byteOffset":256392
		},
		{
			"buffer":0,
			"byteLength":24,
			"byteOffset":256424
		},
		{
			"buffer":0,
			"byteLength":400,
			"byteOffset":256448
		},
		{
			"buffer":0,
			"byteLength":24,
			"byteOffset":256848
		},
		{
			"buffer":0,
			"byteLength":32,
			"byteOffset":256872
		},
		{
			"buffer":0,
			"byteLength":24,
			"byteOffset":256904
		},
		{
			"buffer":0,
			"byteLength":32,
			"byteOffset":256928
		},
		{
			"buffer":0,
			"byteLength":24,
			"byteOffset":256960
		},
		{
			"buffer":0,
			"byteLength":32,
			"byteOffset":256984
		},
		{
			"buffer":0,
			"byteLength":24,
			"byteOffset":257016
		},
		{
			"buffer":0,
			"byteLength":24,
			"byteOffset":257040
		},
		{
			"buffer":0,
			"byteLength":32,
			"byteOffset":257064
		},
		{
			"buffer":0,
			"byteLength":24,
			"byteOffset":257096
		},
		{
			"buffer":0,
			"byteLength":32,
			"byteOffset":257120
		},
		{
			"buffer":0,
			"byteLength":24,
			"byteOffset":257152
		},
		{
			"buffer":0,
			"byteLength":32,
			"byteOffset":257176
		},
		{
			"buffer":0,
			"byteLength":24,
			"byteOffset":257208
		},
		{
			"buffer":0,
			"byteLength":32,
			"byteOffset":257232
		},
		{
			"buffer":0,
			"byteLength":4,
			"byteOffset":257264
		},
		{
			"buffer":0,
			"byteLength":12,
			"byteOffset":257268
		},
		{
			"buffer":0,
			"byteLength":16,
			"byteOffset":257280
		},
		{
			"buffer":0,
			"byteLength":12,
			"byteOffset":257296
		},
		{
			"buffer":0,
			"byteLength":12,
			"byteOffset":257308
		},
		{
			"buffer":0,
			"byteLength":16,
			"byteOffset":257320
		},
		{
			"buffer":0,
			"byteLength":12,
			"byteOffset":257336
		},
		{
			"buffer":0,
			"byteLength":16,
			"byteOffset":257348
		},
		{
			"buffer":0,
			"byteLength":12,
			"byteOffset":257364
		},
		{
			"buffer":0,
			"byteLength":12,
			"byteOffset":257376
		},
		{
			"buffer":0,
			"byteLength":16,
			"byteOffset":257388
		},
		{
			"buffer":0,
			"byteLength":12,
			"byteOffset":257404
		},
		{
			"buffer":0,
			"byteLength":12,
			"byteOffset":257416
		},
		{
			"buffer":0,
			"byteLength":16,
			"byteOffset":257428
		},
		{
			"buffer":0,
			"byteLength":12,
			"byteOffset":257444
		},
		{
			"buffer":0,
			"byteLength":12,
			"byteOffset":257456
		},
		{
			"buffer":0,
			"byteLength":16,
			"byteOffset":257468
		},
		{
			"buffer":0,
			"byteLength":12,
			"byteOffset":257484
		},
		{
			"buffer":0,
			"byteLength":16,
			"byteOffset":257496
		},
		{
			"buffer":0,
			"byteLength":12,
			"byteOffset":257512
		},
		{
			"buffer":0,
			"byteLength":12,
			"byteOffset":257524
		},
		{
			"buffer":0,
			"byteLength":16,
			"byteOffset":257536
		},
		{
			"buffer":0,
			"byteLength":12,
			"byteOffset":257552
		},
		{
			"buffer":0,
			"byteLength":16,
			"byteOffset":257564
		},
		{
			"buffer":0,
			"byteLength":12,
			"byteOffset":257580
		},
		{
			"buffer":0,
			"byteLength":16,
			"byteOffset":257592
		},
		{
			"buffer":0,
			"byteLength":12,
			"byteOffset":257608
		},
		{
			"buffer":0,
			"byteLength":12,
			"byteOffset":257620
		},
		{
			"buffer":0,
			"byteLength":16,
			"byteOffset":257632
		},
		{
			"buffer":0,
			"byteLength":12,
			"byteOffset":257648
		},
		{
			"buffer":0,
			"byteLength":16,
			"byteOffset":257660
		},
		{
			"buffer":0,
			"byteLength":12,
			"byteOffset":257676
		},
		{
			"buffer":0,
			"byteLength":16,
			"byteOffset":257688
		},
		{
			"buffer":0,
			"byteLength":12,
			"byteOffset":257704
		},
		{
			"buffer":0,
			"byteLength":16,
			"byteOffset":257716
		},
		{
			"buffer":0,
			"byteLength":16,
			"byteOffset":257732
		},
		{
			"buffer":0,
			"byteLength":12,
			"byteOffset":257748
		},
		{
			"buffer":0,
			"byteLength":16,
			"byteOffset":257760
		},
		{
			"buffer":0,
			"byteLength":12,
			"byteOffset":257776
		},
		{
			"buffer":0,
			"byteLength":16,
			"byteOffset":257788
		},
		{
			"buffer":0,
			"byteLength":12,
			"byteOffset":257804
		},
		{
			"buffer":0,
			"byteLength":16,
			"byteOffset":257816
		},
		{
			"buffer":0,
			"byteLength":12,
			"byteOffset":257832
		},
		{
			"buffer":0,
			"byteLength":16,
			"byteOffset":257844
		},
		{
			"buffer":0,
			"byteLength":16,
			"byteOffset":257860
		},
		{
			"buffer":0,
			"byteLength":12,
			"byteOffset":257876
		},
		{
			"buffer":0,
			"byteLength":12,
			"byteOffset":257888
		},
		{
			"buffer":0,
			"byteLength":16,
			"byteOffset":257900
		},
		{
			"buffer":0,
			"byteLength":12,
			"byteOffset":257916
		},
		{
			"buffer":0,
			"byteLength":16,
			"byteOffset":257928
		},
		{
			"buffer":0,
			"byteLength":12,
			"byteOffset":257944
		},
		{
			"buffer":0,
			"byteLength":16,
			"byteOffset":257956
		}
	],
	"samplers":[
		{
			"magFilter":9729,
			"minFilter":9987
		}
	],
	"buffers":[
		{
			"byteLength":257972,
			"uri":"villager.bin"
		}
	]
}
